<?xml version="1.0" encoding="UTF-8" standalone="no"?>
<!DOCTYPE svg PUBLIC "-//W3C//DTD SVG 1.1//EN" "http://www.w3.org/Graphics/SVG/1.1/DTD/svg11.dtd">
<svg width="100%" height="100%" viewBox="0 0 800 800" version="1.1" xmlns="http://www.w3.org/2000/svg" xmlns:xlink="http://www.w3.org/1999/xlink" xml:space="preserve" xmlns:serif="http://www.serif.com/" style="fill-rule:evenodd;clip-rule:evenodd;stroke-linecap:round;">
    <path d="M366.667,552.86L366.667,247.14C366.667,217.444 330.762,202.571 309.763,223.57L243.096,290.237C236.845,296.488 228.367,300 219.526,300L166.667,300C148.257,300 133.333,314.924 133.333,333.333L133.333,466.667C133.333,485.077 148.257,500 166.667,500L219.526,500C228.367,500 236.845,503.513 243.096,509.763L309.763,576.43C330.762,597.43 366.667,582.557 366.667,552.86Z" style="fill:none;fill-rule:nonzero;stroke:white;stroke-width:66.67px;"/>
    <path d="M666.667,316.667L500,483.333" style="fill:none;fill-rule:nonzero;stroke:white;stroke-width:66.67px;"/>
    <path d="M666.667,483.333L500,316.667" style="fill:none;fill-rule:nonzero;stroke:white;stroke-width:66.67px;"/>
</svg>
