<?xml version="1.0" encoding="UTF-8" standalone="no"?>
<!DOCTYPE svg PUBLIC "-//W3C//DTD SVG 1.1//EN" "http://www.w3.org/Graphics/SVG/1.1/DTD/svg11.dtd">
<svg width="100%" height="100%" viewBox="0 0 800 800" version="1.1" xmlns="http://www.w3.org/2000/svg" xmlns:xlink="http://www.w3.org/1999/xlink" xml:space="preserve" xmlns:serif="http://www.serif.com/" style="fill-rule:evenodd;clip-rule:evenodd;stroke-linejoin:round;stroke-miterlimit:2;">
    <path d="M401.183,284.038C414.203,271.02 435.58,270.891 446.27,285.879C469.607,318.596 483.333,358.64 483.333,401.89C483.333,445.137 469.607,485.18 446.27,517.9C435.58,532.887 414.203,532.757 401.183,519.74C388.167,506.723 388.62,485.75 398.027,469.927C409.867,450.007 416.667,426.743 416.667,401.89C416.667,377.037 409.867,353.77 398.027,333.853C388.62,318.028 388.167,297.055 401.183,284.038Z" style="fill:white;fill-rule:nonzero;stroke:white;stroke-width:1px;"/>
    <path d="M495.467,189.772C508.483,176.754 529.737,176.659 541.397,190.904C588.44,248.373 616.667,321.842 616.667,401.903C616.667,481.967 588.44,555.437 541.397,612.903C529.737,627.15 508.483,627.053 495.467,614.037C482.447,601.02 482.64,580.023 493.943,565.493C529.077,520.327 550,463.56 550,401.903C550,340.25 529.077,283.482 493.943,238.315C482.64,223.784 482.447,202.789 495.467,189.772Z" style="fill:white;fill-rule:nonzero;stroke:white;stroke-width:1px;"/>
    <path d="M589.763,93.107C602.783,80.089 623.99,80.016 636.05,93.925C707.043,175.797 750.007,282.634 750.007,399.507C750.007,517.707 706.06,625.643 633.617,707.87C621.447,721.683 600.243,721.443 587.327,708.323C574.413,695.207 574.697,674.187 586.703,660.23C646.933,590.21 683.34,499.11 683.34,399.507C683.34,301.042 647.763,210.887 588.76,141.195C576.867,127.145 576.747,106.124 589.763,93.107Z" style="fill:white;fill-rule:nonzero;stroke:white;stroke-width:1px;"/>
    <path d="M333.333,552.86L333.333,247.14C333.333,217.444 297.429,202.571 276.43,223.57L209.763,290.237C203.512,296.488 195.033,300 186.193,300L133.333,300C114.924,300 100,314.924 100,333.333L100,466.667C100,485.077 114.924,500 133.333,500L186.193,500C195.033,500 203.512,503.513 209.763,509.763L276.43,576.43C297.429,597.43 333.333,582.557 333.333,552.86Z" style="fill:none;fill-rule:nonzero;stroke:white;stroke-width:66.67px;stroke-linecap:round;stroke-linejoin:miter;stroke-miterlimit:4;"/>
</svg>
