<?xml version="1.0" encoding="UTF-8" standalone="no"?>
<!DOCTYPE svg PUBLIC "-//W3C//DTD SVG 1.1//EN" "http://www.w3.org/Graphics/SVG/1.1/DTD/svg11.dtd">
<svg width="100%" height="100%" viewBox="0 0 266 173" version="1.1" xmlns="http://www.w3.org/2000/svg" xmlns:xlink="http://www.w3.org/1999/xlink" xml:space="preserve" xmlns:serif="http://www.serif.com/" style="fill-rule:evenodd;clip-rule:evenodd;stroke-linejoin:round;stroke-miterlimit:2;">
    <path d="M253.8,172.52L12.11,172.52C5.43,172.52 0,167.09 0,160.41L0,25.12C0,18.44 5.43,13.01 12.11,13.01L253.8,13.01C260.48,13.01 265.91,18.44 265.91,25.12L265.91,160.41C265.91,167.09 260.48,172.52 253.8,172.52ZM12.11,16.83C7.54,16.83 3.82,20.55 3.82,25.12L3.82,160.41C3.82,164.98 7.54,168.7 12.11,168.7L253.8,168.7C258.37,168.7 262.09,164.98 262.09,160.41L262.09,25.12C262.09,20.55 258.37,16.83 253.8,16.83L12.11,16.83Z" style="fill:white;fill-rule:nonzero;"/>
    <path d="M132.95,164.96C95.65,164.96 65.3,134.61 65.3,97.31C65.3,60.01 95.65,29.65 132.95,29.65C170.25,29.65 200.61,60 200.61,97.31C200.61,134.62 170.26,164.96 132.95,164.96ZM132.95,33.47C97.75,33.47 69.11,62.11 69.11,97.31C69.11,132.51 97.75,161.15 132.95,161.15C168.15,161.15 196.79,132.51 196.79,97.31C196.79,62.11 168.15,33.47 132.95,33.47Z" style="fill:white;fill-rule:nonzero;"/>
    <path d="M264,147.58L177.48,147.58C176.69,147.58 175.99,147.1 175.7,146.37C175.41,145.64 175.61,144.81 176.18,144.27C189.27,132.21 196.78,115.09 196.78,97.31C196.78,79.53 189.27,62.42 176.18,50.35C175.6,49.82 175.41,48.98 175.7,48.25C175.99,47.52 176.69,47.04 177.48,47.04L264,47.04C265.05,47.04 265.91,47.89 265.91,48.95L265.91,145.67C265.91,146.72 265.06,147.58 264,147.58ZM182.13,143.76L262.09,143.76L262.09,50.86L182.13,50.86C193.93,63.37 200.61,80.04 200.61,97.31C200.61,114.58 193.93,131.26 182.13,143.76Z" style="fill:white;fill-rule:nonzero;"/>
    <path d="M132.95,143.96C107.23,143.96 86.3,123.03 86.3,97.31C86.3,71.59 107.23,50.66 132.95,50.66C158.67,50.66 179.6,71.59 179.6,97.31C179.6,123.03 158.67,143.96 132.95,143.96ZM132.95,54.48C109.33,54.48 90.12,73.69 90.12,97.31C90.12,120.93 109.33,140.14 132.95,140.14C156.57,140.14 175.78,120.93 175.78,97.31C175.78,73.69 156.57,54.48 132.95,54.48Z" style="fill:white;fill-rule:nonzero;"/>
    <path d="M57.26,60.81C50.72,60.81 45.4,55.49 45.4,48.95C45.4,42.41 50.72,37.09 57.26,37.09C63.8,37.09 69.12,42.41 69.12,48.95C69.12,55.49 63.8,60.81 57.26,60.81ZM57.26,40.91C52.83,40.91 49.22,44.52 49.22,48.95C49.22,53.38 52.83,56.99 57.26,56.99C61.69,56.99 65.3,53.38 65.3,48.95C65.3,44.52 61.69,40.91 57.26,40.91Z" style="fill:white;fill-rule:nonzero;"/>
    <path d="M88.43,147.58L1.91,147.58C0.86,147.58 0,146.73 0,145.67L0,48.95C0,47.9 0.85,47.04 1.91,47.04L47.31,47.04C48.36,47.04 49.22,47.89 49.22,48.95C49.22,53.38 52.83,56.99 57.26,56.99C61.69,56.99 65.3,53.38 65.3,48.95C65.3,47.9 66.15,47.04 67.21,47.04L88.43,47.04C89.22,47.04 89.92,47.52 90.21,48.25C90.5,48.98 90.3,49.81 89.73,50.35C76.64,62.41 69.13,79.53 69.13,97.31C69.13,115.09 76.64,132.2 89.73,144.27C90.31,144.8 90.5,145.64 90.21,146.37C89.92,147.1 89.22,147.58 88.43,147.58ZM3.81,143.76L83.77,143.76C71.97,131.25 65.29,114.58 65.29,97.31C65.29,80.04 71.97,63.36 83.77,50.86L68.95,50.86C68.03,56.49 63.14,60.81 57.25,60.81C51.36,60.81 46.46,56.5 45.55,50.86L3.82,50.86L3.82,143.76L3.81,143.76Z" style="fill:white;fill-rule:nonzero;"/>
    <path d="M84.78,16.83L29.75,16.83C29.05,16.83 28.4,16.44 28.07,15.83C27.74,15.21 27.77,14.46 28.16,13.87L36.74,0.86C37.09,0.32 37.69,0 38.33,0L76.18,0C76.82,0 77.42,0.32 77.77,0.86L86.24,13.7C86.52,14.03 86.69,14.46 86.69,14.93C86.69,15.98 85.84,16.84 84.78,16.84L84.78,16.83ZM33.29,13.01L81.22,13.01L75.16,3.81L39.36,3.81L33.3,13.01L33.29,13.01Z" style="fill:white;fill-rule:nonzero;"/>
    <path d="M242.71,40.91L198.7,40.91C197.65,40.91 196.79,40.06 196.79,39L196.79,24.82C196.79,23.77 197.64,22.91 198.7,22.91L242.71,22.91C243.76,22.91 244.62,23.76 244.62,24.82L244.62,39C244.62,40.05 243.77,40.91 242.71,40.91ZM200.61,37.09L240.81,37.09L240.81,26.73L200.61,26.73L200.61,37.09Z" style="fill:white;fill-rule:nonzero;"/>
</svg>
